<svg width="32" height="32" viewBox="0 0 32 32" fill="none" xmlns="http://www.w3.org/2000/svg">
<g filter="url(#filter0_d_1214_1221)">
<g clip-path="url(#clip0_1214_1221)">
<rect x="4" width="24" height="24" rx="3" fill="#059669"/>
<g filter="url(#filter1_d_1214_1221)">
<path d="M9.12911 5.29493C9 5.47689 9 5.73459 9 6.25C9 6.76541 9 7.02311 9.12911 7.20507C9.17467 7.26928 9.23073 7.32534 9.29493 7.37089C9.47689 7.5 9.73459 7.5 10.25 7.5C10.7654 7.5 11.0231 7.5 11.2051 7.37089C11.2693 7.32534 11.3253 7.26928 11.3709 7.20507C11.5 7.02311 11.5 6.76541 11.5 6.25C11.5 5.73459 11.5 5.47689 11.3709 5.29493C11.3253 5.23073 11.2693 5.17467 11.2051 5.12911C11.0231 5 10.7654 5 10.25 5C9.73459 5 9.47689 5 9.29493 5.12911C9.23073 5.17467 9.17467 5.23073 9.12911 5.29493Z" fill="white"/>
<path fill-rule="evenodd" clip-rule="evenodd" d="M12.7042 1.29021C13.1465 1.33227 13.5588 1.42353 13.9369 1.65524C14.3069 1.88199 14.618 2.1931 14.8448 2.56313C15.0765 2.94125 15.1677 3.35349 15.2098 3.79585C15.25 4.21899 15.25 4.73995 15.25 5.36422V6.552C15.25 7.45046 15.2501 8.19971 15.1701 8.79448C15.0857 9.42228 14.9 9.98908 14.4445 10.4445C13.9891 10.9 13.4223 11.0857 12.7945 11.1701C12.1997 11.2501 11.4505 11.25 10.552 11.25H9.3643C8.74004 11.25 8.21899 11.25 7.79585 11.2098C7.35349 11.1677 6.94125 11.0765 6.56313 10.8448C6.1931 10.618 5.88199 10.3069 5.65524 9.93687C5.42353 9.55876 5.33227 9.14651 5.29021 8.70415C5.24997 8.281 5.24999 7.76 5.25 7.13571V7.06235C5.24999 6.11229 5.24998 5.34606 5.30863 4.72927C5.36911 4.09318 5.49721 3.53898 5.8026 3.04063C6.11181 2.53605 6.53605 2.11181 7.04063 1.8026C7.53898 1.49721 8.09318 1.36911 8.72927 1.30863C9.34607 1.24998 10.1123 1.24999 11.0623 1.25H11.1357C11.76 1.24999 12.281 1.24997 12.7042 1.29021ZM12.5622 2.78347C12.2185 2.75079 11.7692 2.75 11.1 2.75C10.1035 2.75 9.4087 2.75079 8.87125 2.80189C8.34496 2.85193 8.04744 2.94487 7.82438 3.08156C7.52163 3.26709 7.26709 3.52163 7.08156 3.82438C6.94487 4.04744 6.85193 4.34496 6.80189 4.87125C6.75079 5.4087 6.75 6.10345 6.75 7.1C6.75 7.76921 6.75079 8.21845 6.78347 8.56217C6.81509 8.89473 6.87119 9.0503 6.9342 9.15312C7.03727 9.32132 7.17868 9.46273 7.34688 9.5658C7.4497 9.62881 7.60527 9.68491 7.93783 9.71653C8.28155 9.74921 8.73079 9.75 9.4 9.75H10.5C11.464 9.75 12.1116 9.74841 12.5946 9.68347C13.0561 9.62142 13.2536 9.5142 13.3839 9.38389C13.5142 9.25357 13.6214 9.05607 13.6835 8.59461C13.7484 8.11157 13.75 7.46401 13.75 6.5V5.4C13.75 4.73079 13.7492 4.28155 13.7165 3.93783C13.6849 3.60527 13.6288 3.4497 13.5658 3.34688C13.4627 3.17868 13.3213 3.03727 13.1531 2.9342C13.0503 2.87119 12.8947 2.81509 12.5622 2.78347Z" fill="white"/>
<path d="M20.6291 5.29493C20.5 5.47689 20.5 5.73459 20.5 6.25C20.5 6.76541 20.5 7.02311 20.6291 7.20507C20.6747 7.26928 20.7307 7.32534 20.7949 7.37089C20.9769 7.5 21.2346 7.5 21.75 7.5C22.2654 7.5 22.5231 7.5 22.7051 7.37089C22.7693 7.32534 22.8253 7.26928 22.8709 7.20507C23 7.02311 23 6.76541 23 6.25C23 5.73459 23 5.47689 22.8709 5.29493C22.8253 5.23073 22.7693 5.17467 22.7051 5.12911C22.5231 5 22.2654 5 21.75 5C21.2346 5 20.9769 5 20.7949 5.12911C20.7307 5.17467 20.6747 5.23073 20.6291 5.29493Z" fill="white"/>
<path fill-rule="evenodd" clip-rule="evenodd" d="M20.8643 1.25H20.9377C21.8877 1.24999 22.6539 1.24998 23.2707 1.30863C23.9068 1.36911 24.461 1.49721 24.9594 1.8026C25.464 2.11181 25.8882 2.53605 26.1974 3.04063C26.5028 3.53898 26.6309 4.09318 26.6914 4.72927C26.75 5.34607 26.75 6.11227 26.75 7.06234V7.1357C26.75 7.76 26.75 8.281 26.7098 8.70415C26.6677 9.14651 26.5765 9.55876 26.3448 9.93687C26.118 10.3069 25.8069 10.618 25.4369 10.8448C25.0588 11.0765 24.6465 11.1677 24.2042 11.2098C23.781 11.25 23.2601 11.25 22.6359 11.25H21.448C20.5495 11.25 19.8003 11.2501 19.2055 11.1701C18.5777 11.0857 18.0109 10.9 17.5555 10.4445C17.1 9.98908 16.9143 9.42228 16.8299 8.79448C16.7499 8.1997 16.75 7.45048 16.75 6.552V5.36431C16.75 4.74001 16.75 4.21901 16.7902 3.79585C16.8323 3.35349 16.9235 2.94125 17.1552 2.56313C17.382 2.1931 17.6931 1.88199 18.0631 1.65524C18.4412 1.42353 18.8535 1.33227 19.2959 1.29021C19.719 1.24997 20.24 1.24999 20.8643 1.25ZM19.4378 2.78347C19.1053 2.81509 18.9497 2.87119 18.8469 2.9342C18.6787 3.03727 18.5373 3.17868 18.4342 3.34688C18.3712 3.4497 18.3151 3.60527 18.2835 3.93783C18.2508 4.28155 18.25 4.73079 18.25 5.4V6.5C18.25 7.46401 18.2516 8.11157 18.3165 8.59461C18.3786 9.05607 18.4858 9.25357 18.6161 9.38389C18.7464 9.5142 18.9439 9.62142 19.4054 9.68347C19.8884 9.74841 20.536 9.75 21.5 9.75H22.6C23.2692 9.75 23.7184 9.74921 24.0622 9.71653C24.3947 9.68491 24.5503 9.62881 24.6531 9.5658C24.8213 9.46273 24.9627 9.32132 25.0658 9.15312C25.1288 9.0503 25.1849 8.89473 25.2165 8.56217C25.2492 8.21845 25.25 7.76921 25.25 7.1C25.25 6.10345 25.2492 5.4087 25.1981 4.87125C25.1481 4.34496 25.0551 4.04744 24.9184 3.82438C24.7329 3.52163 24.4784 3.26709 24.1756 3.08156C23.9526 2.94487 23.655 2.85193 23.1288 2.80189C22.5913 2.75079 21.8966 2.75 20.9 2.75C20.2308 2.75 19.7816 2.75079 19.4378 2.78347Z" fill="white"/>
<path d="M9 17.75C9 17.2346 9 16.9769 9.12911 16.7949C9.17467 16.7307 9.23073 16.6747 9.29493 16.6291C9.47689 16.5 9.73459 16.5 10.25 16.5C10.7654 16.5 11.0231 16.5 11.2051 16.6291C11.2693 16.6747 11.3253 16.7307 11.3709 16.7949C11.5 16.9769 11.5 17.2346 11.5 17.75C11.5 18.2654 11.5 18.5231 11.3709 18.7051C11.3253 18.7693 11.2693 18.8253 11.2051 18.8709C11.0231 19 10.7654 19 10.25 19C9.73459 19 9.47689 19 9.29493 18.8709C9.23073 18.8253 9.17467 18.7693 9.12911 18.7051C9 18.5231 9 18.2654 9 17.75Z" fill="white"/>
<path fill-rule="evenodd" clip-rule="evenodd" d="M12.7945 12.8299C13.4223 12.9143 13.9891 13.1 14.4445 13.5555C14.9 14.0109 15.0857 14.5777 15.1701 15.2055C15.2501 15.8003 15.25 16.5495 15.25 17.448V18.6357C15.25 19.2599 15.25 19.781 15.2098 20.2042C15.1677 20.6465 15.0765 21.0588 14.8448 21.4369C14.618 21.8069 14.3069 22.118 13.9369 22.3448C13.5588 22.5765 13.1465 22.6677 12.7042 22.7098C12.281 22.75 11.76 22.75 11.1357 22.75H11.0623C10.1123 22.75 9.34607 22.75 8.72927 22.6914C8.09318 22.6309 7.53898 22.5028 7.04063 22.1974C6.53605 21.8882 6.11181 21.464 5.8026 20.9594C5.49721 20.461 5.36911 19.9068 5.30863 19.2707C5.24998 18.6539 5.24999 17.8877 5.25 16.9377V16.8643C5.24999 16.24 5.24997 15.719 5.29021 15.2959C5.33227 14.8535 5.42353 14.4412 5.65524 14.0631C5.88199 13.6931 6.1931 13.382 6.56313 13.1552C6.94125 12.9235 7.35349 12.8323 7.79585 12.7902C8.21901 12.75 8.74001 12.75 9.36431 12.75H10.552C11.4505 12.75 12.1997 12.7499 12.7945 12.8299ZM12.5946 14.3165C12.1116 14.2516 11.464 14.25 10.5 14.25H9.4C8.73079 14.25 8.28155 14.2508 7.93783 14.2835C7.60527 14.3151 7.4497 14.3712 7.34688 14.4342C7.17868 14.5373 7.03727 14.6787 6.9342 14.8469C6.87119 14.9497 6.81509 15.1053 6.78347 15.4378C6.75079 15.7816 6.75 16.2308 6.75 16.9C6.75 17.8966 6.75079 18.5913 6.80189 19.1288C6.85193 19.655 6.94487 19.9526 7.08156 20.1756C7.26709 20.4784 7.52163 20.7329 7.82438 20.9184C8.04744 21.0551 8.34496 21.1481 8.87125 21.1981C9.4087 21.2492 10.1035 21.25 11.1 21.25C11.7692 21.25 12.2185 21.2492 12.5622 21.2165C12.8947 21.1849 13.0503 21.1288 13.1531 21.0658C13.3213 20.9627 13.4627 20.8213 13.5658 20.6531C13.6288 20.5503 13.6849 20.3947 13.7165 20.0622C13.7492 19.7184 13.75 19.2692 13.75 18.6V17.5C13.75 16.536 13.7484 15.8884 13.6835 15.4054C13.6214 14.9439 13.5142 14.7464 13.3839 14.6161C13.2536 14.4858 13.0561 14.3786 12.5946 14.3165Z" fill="white"/>
<path d="M20.9617 12.75H22.25C22.6642 12.75 23 13.0858 23 13.5C23 13.9142 22.6642 14.25 22.25 14.25H21C20.2822 14.25 19.8002 14.2509 19.4328 14.2883C19.078 14.3244 18.914 14.3882 18.8055 14.4607C18.6691 14.5519 18.5519 14.6691 18.4607 14.8055C18.3882 14.914 18.3244 15.078 18.2883 15.4328C18.2657 15.6545 18.2565 15.918 18.2526 16.2499C18.2479 16.6641 17.9142 17 17.5 17H16.7883C16.7671 17 16.75 16.9829 16.75 16.9617C16.75 16.2921 16.75 15.7333 16.796 15.281C16.8442 14.8075 16.9489 14.3682 17.2135 13.9722C17.4141 13.6719 17.6719 13.4141 17.9722 13.2135C18.3682 12.9489 18.8075 12.8442 19.281 12.796C19.7333 12.75 20.2921 12.75 20.9617 12.75Z" fill="white"/>
<path d="M16.75 22V19.75C16.75 19.3358 17.0858 19 17.5 19C17.9142 19 18.25 19.3358 18.25 19.75V22C18.25 22.4142 17.9142 22.75 17.5 22.75C17.0858 22.75 16.75 22.4142 16.75 22Z" fill="white"/>
<path d="M26.75 13.5C26.75 13.0858 26.4142 12.75 26 12.75C25.5858 12.75 25.25 13.0858 25.25 13.5V16.25C25.25 16.6642 25.5858 17 26 17C26.4142 17 26.75 16.6642 26.75 16.25V13.5Z" fill="white"/>
<path d="M26 19C25.5858 19 25.2549 19.3359 25.2451 19.75C25.2426 19.8593 25.2387 19.9558 25.2327 20.0433C25.2163 20.284 25.1868 20.4012 25.1549 20.4784C25.028 20.7846 24.7846 21.028 24.4784 21.1549C24.4012 21.1868 24.284 21.2163 24.0433 21.2327C23.7958 21.2496 23.4762 21.25 23 21.25H21.75C21.3358 21.25 21 21.5858 21 22C21 22.4142 21.3358 22.75 21.75 22.75H23.0253C23.4697 22.75 23.8408 22.75 24.1454 22.7292C24.4625 22.7076 24.762 22.661 25.0524 22.5407C25.7262 22.2616 26.2616 21.7262 26.5407 21.0524C26.661 20.762 26.7076 20.4625 26.7292 20.1454C26.75 19.8408 26.75 19.4698 26.75 19.0253C26.75 19.0113 26.7387 19 26.7247 19H26Z" fill="white"/>
<path d="M20.1685 16.4444C20 16.6967 20 17.0478 20 17.75C20 18.4522 20 18.8033 20.1685 19.0556C20.2415 19.1648 20.3352 19.2585 20.4444 19.3315C20.6967 19.5 21.0478 19.5 21.75 19.5C22.4522 19.5 22.8033 19.5 23.0556 19.3315C23.1648 19.2585 23.2585 19.1648 23.3315 19.0556C23.5 18.8033 23.5 18.4522 23.5 17.75C23.5 17.0478 23.5 16.6967 23.3315 16.4444C23.2585 16.3352 23.1648 16.2415 23.0556 16.1685C22.8033 16 22.4522 16 21.75 16C21.0478 16 20.6967 16 20.4444 16.1685C20.3352 16.2415 20.2415 16.3352 20.1685 16.4444Z" fill="white"/>
</g>
</g>
</g>
<defs>
<filter id="filter0_d_1214_1221" x="0" y="0" width="32" height="32" filterUnits="userSpaceOnUse" color-interpolation-filters="sRGB">
<feFlood flood-opacity="0" result="BackgroundImageFix"/>
<feColorMatrix in="SourceAlpha" type="matrix" values="0 0 0 0 0 0 0 0 0 0 0 0 0 0 0 0 0 0 127 0" result="hardAlpha"/>
<feOffset dy="4"/>
<feGaussianBlur stdDeviation="2"/>
<feComposite in2="hardAlpha" operator="out"/>
<feColorMatrix type="matrix" values="0 0 0 0 0 0 0 0 0 0 0 0 0 0 0 0 0 0 0.25 0"/>
<feBlend mode="normal" in2="BackgroundImageFix" result="effect1_dropShadow_1214_1221"/>
<feBlend mode="normal" in="SourceGraphic" in2="effect1_dropShadow_1214_1221" result="shape"/>
</filter>
<filter id="filter1_d_1214_1221" x="1.25" y="1.25" width="29.5" height="29.5" filterUnits="userSpaceOnUse" color-interpolation-filters="sRGB">
<feFlood flood-opacity="0" result="BackgroundImageFix"/>
<feColorMatrix in="SourceAlpha" type="matrix" values="0 0 0 0 0 0 0 0 0 0 0 0 0 0 0 0 0 0 127 0" result="hardAlpha"/>
<feOffset dy="4"/>
<feGaussianBlur stdDeviation="2"/>
<feComposite in2="hardAlpha" operator="out"/>
<feColorMatrix type="matrix" values="0 0 0 0 0 0 0 0 0 0 0 0 0 0 0 0 0 0 0.25 0"/>
<feBlend mode="normal" in2="BackgroundImageFix" result="effect1_dropShadow_1214_1221"/>
<feBlend mode="normal" in="SourceGraphic" in2="effect1_dropShadow_1214_1221" result="shape"/>
</filter>
<clipPath id="clip0_1214_1221">
<rect x="4" width="24" height="24" rx="3" fill="white"/>
</clipPath>
</defs>
</svg>
