<svg width="35" height="35" viewBox="0 0 35 35" fill="none" xmlns="http://www.w3.org/2000/svg">
<g filter="url(#filter0_d_1214_1221)">
<g clip-path="url(#clip0_1214_1221)">
<rect x="4" y="2" width="27" height="27" rx="3" fill="#DC2626"/>
<g filter="url(#filter1_d_1214_1221)">
<path d="M10.0036 8.17476C9.8703 8.36256 9.8703 8.62853 9.8703 9.16048C9.8703 9.69243 9.8703 9.9584 10.0036 10.1462C10.0506 10.2125 10.1084 10.2703 10.1747 10.3173C10.3625 10.4506 10.6285 10.4506 11.1604 10.4506C11.6924 10.4506 11.9583 10.4506 12.1461 10.3173C12.2124 10.2703 12.2703 10.2125 12.3173 10.1462C12.4505 9.9584 12.4505 9.69243 12.4505 9.16048C12.4505 8.62853 12.4505 8.36256 12.3173 8.17476C12.2703 8.1085 12.2124 8.05064 12.1461 8.00361C11.9583 7.87036 11.6924 7.87036 11.1604 7.87036C10.6285 7.87036 10.3625 7.87036 10.1747 8.00361C10.1084 8.05064 10.0506 8.1085 10.0036 8.17476Z" fill="white"/>
<path fill-rule="evenodd" clip-rule="evenodd" d="M13.6934 4.0415C14.1499 4.08491 14.5754 4.1791 14.9657 4.41825C15.3476 4.65227 15.6686 4.97337 15.9027 5.35527C16.1419 5.74553 16.236 6.171 16.2794 6.62755C16.3209 7.06427 16.3209 7.60195 16.3209 8.24626V9.47216C16.3209 10.3995 16.321 11.1727 16.2385 11.7866C16.1514 12.4346 15.9597 13.0195 15.4896 13.4896C15.0195 13.9597 14.4346 14.1514 13.7866 14.2385C13.1727 14.321 12.3995 14.3209 11.4722 14.3209H10.2463C9.60205 14.3209 9.06427 14.3209 8.62755 14.2794C8.171 14.236 7.74553 14.1419 7.35527 13.9027C6.97337 13.6686 6.65227 13.3476 6.41825 12.9657C6.1791 12.5754 6.08491 12.1499 6.0415 11.6934C5.99997 11.2566 5.99999 10.7189 6 10.0746V9.99889C5.99999 9.01834 5.99998 8.22752 6.06051 7.59093C6.12293 6.93443 6.25514 6.36244 6.57034 5.8481C6.88947 5.32732 7.32732 4.88947 7.8481 4.57034C8.36244 4.25514 8.93443 4.12293 9.59093 4.06051C10.2275 3.99998 11.0183 3.99999 11.9989 4H12.0746C12.7189 3.99999 13.2566 3.99997 13.6934 4.0415ZM13.5468 5.58268C13.1921 5.54896 12.7284 5.54814 12.0377 5.54814C11.0092 5.54814 10.2922 5.54896 9.73747 5.6017C9.19429 5.65334 8.88722 5.74926 8.657 5.89034C8.34453 6.08183 8.08183 6.34453 7.89034 6.657C7.74926 6.88722 7.65334 7.19429 7.6017 7.73747C7.54896 8.29217 7.54814 9.00921 7.54814 10.0377C7.54814 10.7284 7.54896 11.1921 7.58268 11.5468C7.61532 11.8901 7.67322 12.0506 7.73825 12.1568C7.84463 12.3304 7.99058 12.4763 8.16418 12.5827C8.2703 12.6477 8.43086 12.7056 8.77409 12.7382C9.12884 12.772 9.5925 12.7728 10.2832 12.7728H11.4185C12.4134 12.7728 13.0818 12.7712 13.5803 12.7041C14.0566 12.6401 14.2604 12.5294 14.3949 12.3949C14.5294 12.2604 14.6401 12.0566 14.7041 11.5803C14.7712 11.0818 14.7728 10.4134 14.7728 9.41849V8.28319C14.7728 7.5925 14.772 7.12884 14.7382 6.77409C14.7056 6.43086 14.6477 6.2703 14.5827 6.16418C14.4763 5.99058 14.3304 5.84463 14.1568 5.73825C14.0506 5.67322 13.8901 5.61532 13.5468 5.58268Z" fill="white"/>
<path d="M21.8727 8.17476C21.7394 8.36256 21.7394 8.62853 21.7394 9.16048C21.7394 9.69243 21.7394 9.9584 21.8727 10.1462C21.9197 10.2125 21.9775 10.2703 22.0438 10.3173C22.2316 10.4506 22.4976 10.4506 23.0296 10.4506C23.5615 10.4506 23.8275 10.4506 24.0153 10.3173C24.0816 10.2703 24.1394 10.2125 24.1864 10.1462C24.3197 9.9584 24.3197 9.69243 24.3197 9.16048C24.3197 8.62853 24.3197 8.36256 24.1864 8.17476C24.1394 8.1085 24.0816 8.05064 24.0153 8.00361C23.8275 7.87036 23.5615 7.87036 23.0296 7.87036C22.4976 7.87036 22.2316 7.87036 22.0438 8.00361C21.9775 8.05064 21.9197 8.1085 21.8727 8.17476Z" fill="white"/>
<path fill-rule="evenodd" clip-rule="evenodd" d="M22.1154 4H22.1911C23.1716 3.99999 23.9624 3.99998 24.599 4.06051C25.2555 4.12293 25.8275 4.25514 26.3419 4.57034C26.8627 4.88947 27.3005 5.32732 27.6196 5.8481C27.9348 6.36244 28.067 6.93443 28.1295 7.59093C28.19 8.22753 28.19 9.01832 28.19 9.99888V10.0746C28.19 10.7189 28.19 11.2566 28.1485 11.6934C28.105 12.1499 28.0109 12.5754 27.7717 12.9657C27.5377 13.3476 27.2166 13.6686 26.8347 13.9027C26.4445 14.1419 26.0189 14.236 25.5624 14.2794C25.1257 14.3209 24.588 14.3209 23.9438 14.3209H22.7178C21.7905 14.3209 21.0172 14.321 20.4033 14.2385C19.7554 14.1514 19.1704 13.9597 18.7004 13.4896C18.2303 13.0195 18.0386 12.4346 17.9515 11.7866C17.8689 11.1727 17.869 10.3995 17.869 9.47216V8.24635C17.869 7.60202 17.869 7.0643 17.9105 6.62755C17.954 6.171 18.0481 5.74553 18.2872 5.35527C18.5213 4.97337 18.8424 4.65227 19.2243 4.41825C19.6145 4.1791 20.04 4.08491 20.4966 4.0415C20.9333 3.99997 21.471 3.99999 22.1154 4ZM20.6431 5.58268C20.2999 5.61532 20.1393 5.67322 20.0332 5.73825C19.8596 5.84463 19.7137 5.99058 19.6073 6.16418C19.5422 6.2703 19.4843 6.43086 19.4517 6.77409C19.418 7.12884 19.4172 7.5925 19.4172 8.28319V9.41849C19.4172 10.4134 19.4188 11.0818 19.4858 11.5803C19.5499 12.0566 19.6605 12.2604 19.795 12.3949C19.9295 12.5294 20.1333 12.6401 20.6096 12.7041C21.1081 12.7712 21.7765 12.7728 22.7715 12.7728H23.9068C24.5974 12.7728 25.0611 12.772 25.4159 12.7382C25.7591 12.7056 25.9197 12.6477 26.0258 12.5827C26.1994 12.4763 26.3453 12.3304 26.4517 12.1568C26.5167 12.0506 26.5746 11.8901 26.6072 11.5468C26.641 11.1921 26.6418 10.7284 26.6418 10.0377C26.6418 9.00921 26.641 8.29217 26.5882 7.73747C26.5366 7.19429 26.4407 6.88722 26.2996 6.657C26.1081 6.34453 25.8454 6.08183 25.5329 5.89034C25.3028 5.74926 24.9956 5.65334 24.4525 5.6017C23.8978 5.54896 23.1808 5.54814 22.1522 5.54814C21.4615 5.54814 20.9979 5.54896 20.6431 5.58268Z" fill="white"/>
<path d="M9.8703 21.0295C9.8703 20.4976 9.8703 20.2316 10.0036 20.0437C10.0506 19.9775 10.1084 19.9197 10.1747 19.8726C10.3625 19.7394 10.6285 19.7394 11.1604 19.7394C11.6924 19.7394 11.9583 19.7394 12.1461 19.8726C12.2124 19.9197 12.2703 19.9775 12.3173 20.0437C12.4505 20.2316 12.4505 20.4976 12.4505 21.0295C12.4505 21.5614 12.4505 21.8274 12.3173 22.0152C12.2703 22.0815 12.2124 22.1393 12.1461 22.1864C11.9583 22.3196 11.6924 22.3196 11.1604 22.3196C10.6285 22.3196 10.3625 22.3196 10.1747 22.1864C10.1084 22.1393 10.0506 22.0815 10.0036 22.0152C9.8703 21.8274 9.8703 21.5614 9.8703 21.0295Z" fill="white"/>
<path fill-rule="evenodd" clip-rule="evenodd" d="M13.7866 15.9515C14.4346 16.0386 15.0195 16.2303 15.4896 16.7004C15.9597 17.1704 16.1514 17.7554 16.2385 18.4033C16.321 19.0172 16.3209 19.7905 16.3209 20.7178V21.9436C16.3209 22.5878 16.3209 23.1257 16.2794 23.5624C16.236 24.0189 16.1419 24.4445 15.9027 24.8347C15.6686 25.2166 15.3476 25.5377 14.9657 25.7717C14.5754 26.0109 14.1499 26.105 13.6934 26.1485C13.2566 26.19 12.7189 26.19 12.0746 26.19H11.9989C11.0183 26.19 10.2275 26.19 9.59093 26.1295C8.93443 26.067 8.36244 25.9348 7.8481 25.6196C7.32732 25.3005 6.88947 24.8627 6.57034 24.3419C6.25514 23.8275 6.12293 23.2555 6.06051 22.599C5.99998 21.9624 5.99999 21.1716 6 20.1911V20.1154C5.99999 19.471 5.99997 18.9333 6.0415 18.4966C6.08491 18.04 6.1791 17.6145 6.41825 17.2243C6.65227 16.8424 6.97337 16.5213 7.35527 16.2872C7.74553 16.0481 8.171 15.954 8.62755 15.9105C9.0643 15.869 9.60202 15.869 10.2464 15.869H11.4722C12.3995 15.869 13.1727 15.8689 13.7866 15.9515ZM13.5803 17.4858C13.0818 17.4188 12.4134 17.4172 11.4185 17.4172H10.2832C9.5925 17.4172 9.12884 17.418 8.77409 17.4517C8.43086 17.4843 8.2703 17.5422 8.16418 17.6073C7.99058 17.7137 7.84463 17.8596 7.73825 18.0332C7.67322 18.1393 7.61532 18.2999 7.58268 18.6431C7.54896 18.9979 7.54814 19.4615 7.54814 20.1522C7.54814 21.1808 7.54896 21.8978 7.6017 22.4525C7.65334 22.9956 7.74926 23.3028 7.89034 23.5329C8.08183 23.8454 8.34453 24.1081 8.657 24.2996C8.88722 24.4407 9.19429 24.5366 9.73747 24.5882C10.2922 24.641 11.0092 24.6418 12.0377 24.6418C12.7284 24.6418 13.1921 24.641 13.5468 24.6072C13.8901 24.5746 14.0506 24.5167 14.1568 24.4517C14.3304 24.3453 14.4763 24.1994 14.5827 24.0258C14.6477 23.9197 14.7056 23.7591 14.7382 23.4159C14.772 23.0611 14.7728 22.5974 14.7728 21.9068V20.7715C14.7728 19.7765 14.7712 19.1081 14.7041 18.6096C14.6401 18.1333 14.5294 17.9295 14.3949 17.795C14.2604 17.6605 14.0566 17.5499 13.5803 17.4858Z" fill="white"/>
<path d="M22.2159 15.869H23.5455C23.973 15.869 24.3196 16.2156 24.3196 16.6431V16.6431C24.3196 17.0706 23.973 17.4172 23.5455 17.4172H22.2554C21.5146 17.4172 21.0171 17.4181 20.6379 17.4567C20.2717 17.4939 20.1025 17.5598 19.9905 17.6346C19.8497 17.7287 19.7287 17.8497 19.6346 17.9905C19.5598 18.1025 19.4939 18.2717 19.4567 18.6379C19.4334 18.8668 19.4238 19.1387 19.4199 19.4812C19.415 19.9087 19.0706 20.2554 18.6431 20.2554H17.9085C17.8867 20.2554 17.869 20.2377 17.869 20.2159V20.2159C17.869 19.5248 17.869 18.9481 17.9165 18.4812C17.9662 17.9926 18.0743 17.5392 18.3474 17.1304C18.5544 16.8205 18.8205 16.5544 19.1304 16.3474C19.5392 16.0743 19.9925 15.9662 20.4812 15.9165C20.9481 15.869 21.5248 15.869 22.2159 15.869Z" fill="white"/>
<path d="M17.869 25.416V23.0938C17.869 22.6663 18.2156 22.3197 18.6431 22.3197V22.3197C19.0706 22.3197 19.4172 22.6663 19.4172 23.0938V25.416C19.4172 25.8435 19.0706 26.1901 18.6431 26.1901C18.2156 26.1901 17.869 25.8435 17.869 25.416Z" fill="white"/>
<path d="M28.19 16.6431C28.19 16.2156 27.8434 15.869 27.4159 15.869C26.9884 15.869 26.6418 16.2156 26.6418 16.6431V19.4813C26.6418 19.9089 26.9884 20.2554 27.4159 20.2554V20.2554C27.8434 20.2554 28.19 19.9089 28.19 19.4813V16.6431Z" fill="white"/>
<path d="M27.416 22.3197C26.9885 22.3197 26.6469 22.6664 26.6369 23.0938C26.6342 23.2066 26.6302 23.3062 26.624 23.3965C26.6071 23.6449 26.5767 23.7659 26.5437 23.8455C26.4128 24.1616 26.1616 24.4128 25.8455 24.5438C25.7658 24.5767 25.6449 24.6071 25.3965 24.6241C25.141 24.6415 24.8112 24.6419 24.3197 24.6419H23.0296C22.6021 24.6419 22.2555 24.9885 22.2555 25.416V25.416C22.2555 25.8435 22.6021 26.1901 23.0296 26.1901H24.3458C24.8045 26.1901 25.1875 26.1901 25.5018 26.1686C25.8291 26.1463 26.1382 26.0982 26.4379 25.974C27.1334 25.686 27.686 25.1334 27.974 24.438C28.0982 24.1383 28.1463 23.8291 28.1686 23.5019C28.19 23.1875 28.19 22.8046 28.19 22.3458V22.3458C28.19 22.3314 28.1783 22.3197 28.1639 22.3197H27.416Z" fill="white"/>
<path d="M21.3973 19.6821C21.2234 19.9424 21.2234 20.3048 21.2234 21.0296C21.2234 21.7543 21.2234 22.1167 21.3973 22.3771C21.4726 22.4898 21.5693 22.5865 21.6821 22.6618C21.9424 22.8357 22.3048 22.8357 23.0296 22.8357C23.7543 22.8357 24.1167 22.8357 24.3771 22.6618C24.4898 22.5865 24.5865 22.4898 24.6618 22.3771C24.8357 22.1167 24.8357 21.7543 24.8357 21.0296C24.8357 20.3048 24.8357 19.9424 24.6618 19.6821C24.5865 19.5693 24.4898 19.4726 24.3771 19.3973C24.1167 19.2234 23.7543 19.2234 23.0296 19.2234C22.3048 19.2234 21.9424 19.2234 21.6821 19.3973C21.5693 19.4726 21.4726 19.5693 21.3973 19.6821Z" fill="white"/>
</g>
</g>
</g>
<defs>
<filter id="filter0_d_1214_1221" x="0" y="0" width="35" height="35" filterUnits="userSpaceOnUse" color-interpolation-filters="sRGB">
<feFlood flood-opacity="0" result="BackgroundImageFix"/>
<feColorMatrix in="SourceAlpha" type="matrix" values="0 0 0 0 0 0 0 0 0 0 0 0 0 0 0 0 0 0 127 0" result="hardAlpha"/>
<feOffset dy="2"/>
<feGaussianBlur stdDeviation="2"/>
<feComposite in2="hardAlpha" operator="out"/>
<feColorMatrix type="matrix" values="0 0 0 0 0.862745 0 0 0 0 0.14902 0 0 0 0 0.14902 0 0 0 0.25 0"/>
<feBlend mode="normal" in2="BackgroundImageFix" result="effect1_dropShadow_1214_1221"/>
<feBlend mode="normal" in="SourceGraphic" in2="effect1_dropShadow_1214_1221" result="shape"/>
</filter>
<filter id="filter1_d_1214_1221" x="2" y="4" width="30.19" height="30.1901" filterUnits="userSpaceOnUse" color-interpolation-filters="sRGB">
<feFlood flood-opacity="0" result="BackgroundImageFix"/>
<feColorMatrix in="SourceAlpha" type="matrix" values="0 0 0 0 0 0 0 0 0 0 0 0 0 0 0 0 0 0 127 0" result="hardAlpha"/>
<feOffset dy="4"/>
<feGaussianBlur stdDeviation="2"/>
<feComposite in2="hardAlpha" operator="out"/>
<feColorMatrix type="matrix" values="0 0 0 0 0 0 0 0 0 0 0 0 0 0 0 0 0 0 0.25 0"/>
<feBlend mode="normal" in2="BackgroundImageFix" result="effect1_dropShadow_1214_1221"/>
<feBlend mode="normal" in="SourceGraphic" in2="effect1_dropShadow_1214_1221" result="shape"/>
</filter>
<clipPath id="clip0_1214_1221">
<rect x="4" y="2" width="27" height="27" rx="3" fill="white"/>
</clipPath>
</defs>
</svg>
